<svg width="150" height="40" viewBox="0 0 150 40" fill="none" xmlns="http://www.w3.org/2000/svg">
  <!-- Globe icon -->
  <circle cx="20" cy="20" r="16" stroke="#4338CA" stroke-width="2" fill="none"/>
  
  <!-- Longitude and latitude lines -->
  <ellipse cx="20" cy="20" rx="16" ry="8" stroke="#4338CA" stroke-width="1.5" fill="none"/>
  <line x1="4" y1="20" x2="36" y2="20" stroke="#4338CA" stroke-width="1.5"/>
  <line x1="20" y1="4" x2="20" y2="36" stroke="#4338CA" stroke-width="1.5"/>
  
  <!-- Plane icon -->
  <path d="M16 18C16 16.8954 16.8954 16 18 16H22C23.1046 16 24 16.8954 24 18V22C24 23.1046 23.1046 24 22 24H18C16.8954 24 16 23.1046 16 22V18Z" fill="#4338CA"/>
  <path d="M34 16L28 18L24 16L28 14L34 16Z" fill="#4338CA"/>
  
  <!-- Text: Phileo -->
  <path d="M48 24V14H52.24C53.36 14 54.2 14.24 54.76 14.72C55.32 15.2 55.6 15.84 55.6 16.64C55.6 17.2 55.46 17.68 55.18 18.08C54.9 18.48 54.52 18.76 54.04 18.92C54.6 19.04 55.04 19.3 55.36 19.7C55.68 20.1 55.84 20.58 55.84 21.14C55.84 21.98 55.54 22.66 54.94 23.18C54.34 23.7 53.54 23.96 52.54 23.96L48 24ZM49.64 18.2H52.12C52.64 18.2 53.04 18.08 53.32 17.84C53.6 17.6 53.74 17.28 53.74 16.88C53.74 16.48 53.6 16.16 53.32 15.92C53.04 15.68 52.64 15.56 52.12 15.56H49.64V18.2ZM49.64 22.38H52.3C52.86 22.38 53.28 22.24 53.56 21.96C53.84 21.68 53.98 21.32 53.98 20.88C53.98 20.44 53.84 20.08 53.56 19.8C53.28 19.52 52.86 19.38 52.3 19.38H49.64V22.38Z" fill="#1F2937"/>
  <path d="M63.0272 24H57.1672V14H63.0272V15.6H58.8472V18.06H62.6272V19.66H58.8472V22.4H63.0272V24Z" fill="#1F2937"/>
  <path d="M67.575 24H65.935V14H67.575V24Z" fill="#1F2937"/>
  <path d="M76.4359 24H74.7959V15.6H71.7359V14H79.4959V15.6H76.4359V24Z" fill="#1F2937"/>
  <path d="M85.6156 24H80.7356V14H85.5956C86.7356 14 87.6356 14.26 88.2956 14.78C88.9556 15.3 89.2856 16.02 89.2856 16.94C89.2856 17.54 89.1456 18.06 88.8656 18.5C88.5856 18.94 88.1956 19.26 87.6956 19.46C88.2756 19.62 88.7356 19.92 89.0756 20.36C89.4156 20.8 89.5856 21.32 89.5856 21.92C89.5856 22.88 89.2556 23.64 88.5956 24.2C87.9356 24.76 86.9556 25.04 85.6556 25.04L85.6156 24ZM82.3756 18.32H85.3556C85.9156 18.32 86.3556 18.18 86.6756 17.9C86.9956 17.62 87.1556 17.24 87.1556 16.76C87.1556 16.28 86.9956 15.9 86.6756 15.62C86.3556 15.34 85.9156 15.2 85.3556 15.2H82.3756V18.32ZM82.3756 22.8H85.5156C86.1156 22.8 86.5856 22.66 86.9256 22.38C87.2656 22.1 87.4356 21.7 87.4356 21.18C87.4356 20.66 87.2656 20.26 86.9256 19.98C86.5856 19.7 86.1156 19.56 85.5156 19.56H82.3756V22.8Z" fill="#1F2937"/>
  
  <!-- Text: Travel Studio -->
  <path d="M107.726 24H106.086V15.6H103.026V14H110.786V15.6H107.726V24Z" fill="#6B7280"/>
  <path d="M117.391 24H111.531V14H117.391V15.6H113.211V18.06H116.991V19.66H113.211V22.4H117.391V24Z" fill="#6B7280"/>
  <path d="M123.655 24H118.795V14H120.475V22.4H123.655V24Z" fill="#6B7280"/>
  <path d="M131.706 24H125.846V14H131.706V15.6H127.526V18.06H131.306V19.66H127.526V22.4H131.706V24Z" fill="#6B7280"/>
  <path d="M138.584 24H132.724V14H138.584V15.6H134.404V18.06H138.184V19.66H134.404V22.4H138.584V24Z" fill="#6B7280"/>
  <path d="M146.291 18.32C147.091 18.68 147.491 19.42 147.491 20.54C147.491 21.5 147.211 22.28 146.651 22.88C146.091 23.48 145.291 23.8 144.251 23.84L140.371 24V14H145.731V15.52H142.051V18.32H146.291ZM142.051 22.48H144.231C144.731 22.48 145.111 22.34 145.371 22.06C145.631 21.78 145.771 21.42 145.791 20.98C145.811 20.54 145.691 20.2 145.431 19.96C145.171 19.72 144.771 19.6 144.231 19.6H142.051V22.48Z" fill="#6B7280"/>
</svg>